<svg width="51" height="51" viewBox="0 0 51 51" fill="none" xmlns="http://www.w3.org/2000/svg">
<path d="M35.8219 35.8709H14.9885V15.0376H35.8219M44.1552 23.3709V19.2043H39.9885V15.0376C39.9885 12.7251 38.1135 10.8709 35.8219 10.8709H31.6552V6.70425H27.4885V10.8709H23.3219V6.70425H19.1552V10.8709H14.9885C12.676 10.8709 10.8219 12.7251 10.8219 15.0376V19.2043H6.65521V23.3709H10.8219V27.5376H6.65521V31.7043H10.8219V35.8709C10.8219 36.976 11.2609 38.0358 12.0423 38.8172C12.8237 39.5986 13.8835 40.0376 14.9885 40.0376H19.1552V44.2043H23.3219V40.0376H27.4885V44.2043H31.6552V40.0376H35.8219C36.9269 40.0376 37.9868 39.5986 38.7682 38.8172C39.5496 38.0358 39.9885 36.976 39.9885 35.8709V31.7043H44.1552V27.5376H39.9885V23.3709M27.4885 27.5376H23.3219V23.3709H27.4885M31.6552 19.2043H19.1552V31.7043H31.6552V19.2043Z" fill="#44474F"/>
</svg>
