<svg width="30" height="115" viewBox="0 0 30 115" fill="none" xmlns="http://www.w3.org/2000/svg">
<rect x="1.5" y="1.5" width="27" height="37" rx="13.5" stroke="#10FFE6" stroke-width="3"/>
<line x1="15" y1="9" x2="15" y2="17.6667" stroke="#10FFE6" stroke-width="4"/>
<path d="M16.5 56C16.5 55.1716 15.8284 54.5 15 54.5C14.1716 54.5 13.5 55.1716 13.5 56L16.5 56ZM15 114.66L23.6603 106L15 97.3397L6.33974 106L15 114.66ZM13.5 56L13.5 59.125L16.5 59.125L16.5 56L13.5 56ZM13.5 65.375L13.5 71.625L16.5 71.625L16.5 65.375L13.5 65.375ZM13.5 77.875L13.5 84.125L16.5 84.125L16.5 77.875L13.5 77.875ZM13.5 90.375L13.5 96.625L16.5 96.625L16.5 90.375L13.5 90.375ZM13.5 102.875L13.5 106L16.5 106L16.5 102.875L13.5 102.875Z" fill="#F8F8F8"/>
</svg>
