<svg width="50" height="50" viewBox="0 0 50 50" fill="none" xmlns="http://www.w3.org/2000/svg">
<g clip-path="url(#clip0_61_4)">
<path d="M33.3333 33.3333H16.6667V8.33333H33.3333M33.3333 0H16.6667C15.5616 0 14.5018 0.438987 13.7204 1.22039C12.939 2.00179 12.5 3.0616 12.5 4.16667V37.5C12.5 38.6051 12.939 39.6649 13.7204 40.4463C14.5018 41.2277 15.5616 41.6667 16.6667 41.6667H33.3333C34.4384 41.6667 35.4982 41.2277 36.2796 40.4463C37.061 39.6649 37.5 38.6051 37.5 37.5V4.16667C37.5 3.0616 37.061 2.00179 36.2796 1.22039C35.4982 0.438987 34.4384 0 33.3333 0ZM31.25 50H35.4167V45.8333H31.25M22.9167 50H27.0833V45.8333H22.9167M14.5833 50H18.75V45.8333H14.5833V50Z" fill="#44474F"/>
</g>
<defs>
<clipPath id="clip0_61_4">
<rect width="50" height="50" fill="white"/>
</clipPath>
</defs>
</svg>
