<svg width="51" height="51" viewBox="0 0 51 51" fill="none" xmlns="http://www.w3.org/2000/svg">
<path d="M25.344 30.6375C26.6701 30.6375 27.9419 30.1107 28.8795 29.173C29.8172 28.2354 30.344 26.9636 30.344 25.6375C30.344 24.3114 29.8172 23.0397 28.8795 22.102C27.9419 21.1643 26.6701 20.6375 25.344 20.6375C24.0179 20.6375 22.7462 21.1643 21.8085 22.102C20.8708 23.0397 20.344 24.3114 20.344 25.6375C20.344 26.9636 20.8708 28.2354 21.8085 29.173C22.7462 30.1107 24.0179 30.6375 25.344 30.6375Z" fill="#98FAED"/>
<path fill-rule="evenodd" clip-rule="evenodd" d="M1.48901 25.6375C4.67401 15.495 14.149 8.13751 25.344 8.13751C36.539 8.13751 46.014 15.495 49.199 25.6375C46.014 35.78 36.539 43.1375 25.344 43.1375C14.149 43.1375 4.67401 35.78 1.48901 25.6375ZM35.344 25.6375C35.344 28.2897 34.2904 30.8332 32.4151 32.7086C30.5397 34.5839 27.9962 35.6375 25.344 35.6375C22.6918 35.6375 20.1483 34.5839 18.2729 32.7086C16.3976 30.8332 15.344 28.2897 15.344 25.6375C15.344 22.9853 16.3976 20.4418 18.2729 18.5664C20.1483 16.6911 22.6918 15.6375 25.344 15.6375C27.9962 15.6375 30.5397 16.6911 32.4151 18.5664C34.2904 20.4418 35.344 22.9853 35.344 25.6375Z" fill="#98FAED"/>
</svg>
