<svg width="135" height="53" viewBox="0 0 135 53" fill="none" xmlns="http://www.w3.org/2000/svg">
<path d="M33.68 25.16C34.0267 25.16 34.2933 25.3333 34.48 25.68C34.6933 26 34.8 26.4133 34.8 26.92C34.8 27.5333 34.7067 28.0133 34.52 28.36C34.3333 28.7067 34.04 29.0133 33.64 29.28C32.0667 30.32 29.56 32.0267 26.12 34.4C25.08 39.92 23.7333 44.2667 22.08 47.44C20.4267 50.6133 18.3333 52.2 15.8 52.2C14.44 52.2 13.3333 51.7733 12.48 50.92C11.6267 50.0933 11.2 49 11.2 47.64C11.2 46.3867 11.48 45.12 12.04 43.84C12.6 42.56 13.64 41.08 15.16 39.4C16.7067 37.72 18.88 35.8 21.68 33.64L21.8 32.88C19.6933 33.76 17.6267 34.2 15.6 34.2C12.6133 34.2 9.98667 33.6267 7.72 32.48C5.45333 31.3067 3.69333 29.6533 2.44 27.52C1.18667 25.3867 0.56 22.9067 0.56 20.08C0.56 16.1333 1.30667 12.6533 2.8 9.64C4.29333 6.6 6.34667 4.25333 8.96 2.6C11.6 0.919998 14.5467 0.079998 17.8 0.079998C20.92 0.079998 23.2533 0.813331 24.8 2.28C26.3733 3.72 27.16 5.64 27.16 8.04C27.16 9.61333 26.8667 10.88 26.28 11.84C25.72 12.7733 24.9067 13.24 23.84 13.24C23.12 13.24 22.5333 13.0667 22.08 12.72C21.6533 12.3733 21.44 11.8933 21.44 11.28C21.44 11.0133 21.4933 10.56 21.6 9.92C21.76 9.17333 21.84 8.58666 21.84 8.16C21.84 7.04 21.4933 6.17333 20.8 5.56C20.1333 4.94667 19 4.64 17.4 4.64C15.4533 4.64 13.64 5.2 11.96 6.32C10.3067 7.44 8.97333 9.12 7.96 11.36C6.94667 13.5733 6.44 16.24 6.44 19.36C6.44 22.56 7.30667 25.04 9.04 26.8C10.8 28.5333 13.3333 29.4 16.64 29.4C18.48 29.4 20.4 28.9867 22.4 28.16L22.96 23.28H18.88C18.1333 23.28 17.56 23.1067 17.16 22.76C16.76 22.3867 16.56 21.7867 16.56 20.96C16.56 20.2133 16.76 19.6267 17.16 19.2C17.56 18.7733 18.0933 18.56 18.76 18.56H26.24C26.8267 18.56 27.3067 18.76 27.68 19.16C28.08 19.5333 28.24 20.08 28.16 20.8C28.08 21.6533 27.8133 23.5867 27.36 26.6L26.92 29.64C29.0533 28.04 31 26.6533 32.76 25.48C33.1067 25.2667 33.4133 25.16 33.68 25.16ZM16.24 48.32C16.9333 48.32 17.6933 47.5333 18.52 45.96C19.3467 44.3867 20.12 41.8533 20.84 38.36C18.8133 40.0933 17.3467 41.6533 16.44 43.04C15.56 44.4533 15.12 45.6933 15.12 46.76C15.12 47.8 15.4933 48.32 16.24 48.32Z" fill="#98FAED"/>
<path d="M37.1819 34.2C36.1685 34.2 35.4485 33.6667 35.0219 32.6C34.6219 31.5333 34.4219 29.8267 34.4219 27.48C34.4219 24.0133 34.9152 20.72 35.9019 17.6C36.1419 16.8267 36.5285 16.2667 37.0619 15.92C37.6219 15.5467 38.3952 15.36 39.3819 15.36C39.9152 15.36 40.2885 15.4267 40.5019 15.56C40.7152 15.6933 40.8219 15.9467 40.8219 16.32C40.8219 16.7467 40.6219 17.7067 40.2219 19.2C39.9552 20.2667 39.7419 21.2 39.5819 22C39.4219 22.8 39.2885 23.7867 39.1819 24.96C40.0619 22.6667 41.0485 20.8 42.1419 19.36C43.2352 17.92 44.3019 16.8933 45.3419 16.28C46.4085 15.6667 47.3819 15.36 48.2619 15.36C49.9952 15.36 50.8619 16.2267 50.8619 17.96C50.8619 18.3067 50.7419 19.1467 50.5019 20.48C50.2885 21.5467 50.1819 22.2133 50.1819 22.48C50.1819 23.4133 50.5152 23.88 51.1819 23.88C51.9285 23.88 52.8885 23.2933 54.0619 22.12C54.4085 21.7733 54.7685 21.6 55.1419 21.6C55.4885 21.6 55.7552 21.76 55.9419 22.08C56.1552 22.3733 56.2619 22.7733 56.2619 23.28C56.2619 24.2667 55.9952 25.04 55.4619 25.6C54.7152 26.3733 53.8352 27.04 52.8219 27.6C51.8352 28.1333 50.7819 28.4 49.6619 28.4C48.2485 28.4 47.1685 28.04 46.4219 27.32C45.7019 26.6 45.3419 25.6267 45.3419 24.4C45.3419 24 45.3819 23.6 45.4619 23.2C45.5152 22.6667 45.5419 22.3067 45.5419 22.12C45.5419 21.6933 45.3952 21.48 45.1019 21.48C44.7019 21.48 44.1685 21.9333 43.5019 22.84C42.8619 23.72 42.2219 24.8933 41.5819 26.36C40.9419 27.8267 40.4219 29.3733 40.0219 31C39.7285 32.2533 39.3819 33.1067 38.9819 33.56C38.6085 33.9867 38.0085 34.2 37.1819 34.2ZM59.465 34.2C57.8117 34.2 56.4917 33.6 55.505 32.4C54.5183 31.2 54.025 29.6267 54.025 27.68C54.025 25.5467 54.5183 23.5333 55.505 21.64C56.4917 19.72 57.7983 18.1867 59.425 17.04C61.0783 15.8667 62.825 15.28 64.665 15.28C65.2517 15.28 65.6383 15.4 65.825 15.64C66.0383 15.8533 66.2117 16.2533 66.345 16.84C66.905 16.7333 67.4917 16.68 68.105 16.68C69.4117 16.68 70.065 17.1467 70.065 18.08C70.065 18.64 69.865 19.9733 69.465 22.08C68.8517 25.1467 68.545 27.28 68.545 28.48C68.545 28.88 68.6383 29.2 68.825 29.44C69.0383 29.68 69.305 29.8 69.625 29.8C70.1317 29.8 70.745 29.48 71.465 28.84C72.185 28.1733 73.1583 27.1067 74.385 25.64C74.705 25.2667 75.065 25.08 75.465 25.08C75.8117 25.08 76.0783 25.24 76.265 25.56C76.4783 25.88 76.585 26.32 76.585 26.88C76.585 27.9467 76.3317 28.7733 75.825 29.36C74.7317 30.72 73.5717 31.8667 72.345 32.8C71.1183 33.7333 69.9317 34.2 68.785 34.2C67.905 34.2 67.0917 33.9067 66.345 33.32C65.625 32.7067 65.0783 31.88 64.705 30.84C63.3183 33.08 61.5717 34.2 59.465 34.2ZM60.905 30.16C61.4917 30.16 62.0517 29.8133 62.585 29.12C63.1183 28.4267 63.505 27.5067 63.745 26.36L65.225 19C64.105 19.0267 63.065 19.4533 62.105 20.28C61.1717 21.08 60.425 22.1467 59.865 23.48C59.305 24.8133 59.025 26.2267 59.025 27.72C59.025 28.5467 59.185 29.16 59.505 29.56C59.8517 29.96 60.3183 30.16 60.905 30.16ZM78.1741 34.2C77.1607 34.2 76.4407 33.6667 76.0141 32.6C75.6141 31.5333 75.4141 29.8267 75.4141 27.48C75.4141 24.0133 75.9074 20.72 76.8941 17.6C77.1341 16.8267 77.5207 16.2667 78.0541 15.92C78.6141 15.5467 79.3874 15.36 80.3741 15.36C80.9074 15.36 81.2807 15.4267 81.4941 15.56C81.7074 15.6933 81.8141 15.9467 81.8141 16.32C81.8141 16.7467 81.6141 17.7067 81.2141 19.2C80.9474 20.2667 80.7341 21.2 80.5741 22C80.4141 22.8 80.2807 23.7867 80.1741 24.96C81.0541 22.6667 82.0407 20.8 83.1341 19.36C84.2274 17.92 85.2941 16.8933 86.3341 16.28C87.4007 15.6667 88.3741 15.36 89.2541 15.36C90.9874 15.36 91.8541 16.2267 91.8541 17.96C91.8541 19 91.5607 20.88 90.9741 23.6C90.4674 25.92 90.2141 27.4533 90.2141 28.2C90.2141 29.2667 90.6007 29.8 91.3741 29.8C91.9074 29.8 92.5341 29.48 93.2541 28.84C94.0007 28.1733 94.9874 27.1067 96.2141 25.64C96.5341 25.2667 96.8941 25.08 97.2941 25.08C97.6407 25.08 97.9074 25.24 98.0941 25.56C98.3074 25.88 98.4141 26.32 98.4141 26.88C98.4141 27.9467 98.1607 28.7733 97.6541 29.36C96.5074 30.7733 95.2674 31.9333 93.9341 32.84C92.6274 33.7467 91.1341 34.2 89.4541 34.2C88.0941 34.2 87.0674 33.8133 86.3741 33.04C85.6807 32.24 85.3341 31.0933 85.3341 29.6C85.3341 28.8533 85.5207 27.52 85.8941 25.6C86.2407 23.92 86.4141 22.76 86.4141 22.12C86.4141 21.6933 86.2674 21.48 85.9741 21.48C85.6274 21.48 85.1341 21.9333 84.4941 22.84C83.8807 23.72 83.2407 24.8933 82.5741 26.36C81.9341 27.8267 81.4141 29.3733 81.0141 31C80.7207 32.2533 80.3741 33.1067 79.9741 33.56C79.6007 33.9867 79.0007 34.2 78.1741 34.2ZM100.018 34.2C99.0045 34.2 98.2845 33.6667 97.8578 32.6C97.4578 31.5333 97.2578 29.8267 97.2578 27.48C97.2578 24.0133 97.7511 20.72 98.7378 17.6C98.9778 16.8267 99.3645 16.2667 99.8978 15.92C100.458 15.5467 101.231 15.36 102.218 15.36C102.751 15.36 103.124 15.4267 103.338 15.56C103.551 15.6933 103.658 15.9467 103.658 16.32C103.658 16.7467 103.458 17.7067 103.058 19.2C102.791 20.2667 102.578 21.2 102.418 22C102.258 22.8 102.124 23.7867 102.018 24.96C102.898 22.6667 103.884 20.8 104.978 19.36C106.071 17.92 107.138 16.8933 108.178 16.28C109.244 15.6667 110.218 15.36 111.098 15.36C112.831 15.36 113.698 16.2267 113.698 17.96C113.698 19 113.404 20.88 112.818 23.6C112.311 25.92 112.058 27.4533 112.058 28.2C112.058 29.2667 112.444 29.8 113.218 29.8C113.751 29.8 114.378 29.48 115.098 28.84C115.844 28.1733 116.831 27.1067 118.058 25.64C118.378 25.2667 118.738 25.08 119.138 25.08C119.484 25.08 119.751 25.24 119.938 25.56C120.151 25.88 120.258 26.32 120.258 26.88C120.258 27.9467 120.004 28.7733 119.498 29.36C118.351 30.7733 117.111 31.9333 115.778 32.84C114.471 33.7467 112.978 34.2 111.298 34.2C109.938 34.2 108.911 33.8133 108.218 33.04C107.524 32.24 107.178 31.0933 107.178 29.6C107.178 28.8533 107.364 27.52 107.738 25.6C108.084 23.92 108.258 22.76 108.258 22.12C108.258 21.6933 108.111 21.48 107.818 21.48C107.471 21.48 106.978 21.9333 106.338 22.84C105.724 23.72 105.084 24.8933 104.418 26.36C103.778 27.8267 103.258 29.3733 102.858 31C102.564 32.2533 102.218 33.1067 101.818 33.56C101.444 33.9867 100.844 34.2 100.018 34.2ZM133.022 15.36C133.635 15.36 134.062 15.44 134.302 15.6C134.542 15.76 134.662 16.0267 134.662 16.4C134.662 17.04 134.315 19.32 133.622 23.24C133.008 27 132.648 29.2267 132.542 29.92C131.555 36.7733 130.195 42.2 128.462 46.2C126.728 50.2 124.422 52.2 121.542 52.2C120.182 52.2 119.075 51.7733 118.222 50.92C117.368 50.0933 116.942 49 116.942 47.64C116.942 46.3867 117.222 45.1067 117.782 43.8C118.368 42.4933 119.435 40.9867 120.982 39.28C122.555 37.6 124.768 35.6667 127.622 33.48L127.742 32.56C127.928 31.5733 128.142 30.16 128.382 28.32C127.848 30.24 127.102 31.7067 126.142 32.72C125.182 33.7067 124.168 34.2 123.102 34.2C121.902 34.2 120.915 33.6533 120.142 32.56C119.395 31.44 119.022 30.0533 119.022 28.4C119.022 26.4 119.155 24.5733 119.422 22.92C119.688 21.24 120.128 19.4667 120.742 17.6C121.008 16.8 121.382 16.2267 121.862 15.88C122.342 15.5333 123.102 15.36 124.142 15.36C124.728 15.36 125.128 15.4533 125.342 15.64C125.582 15.8267 125.702 16.1067 125.702 16.48C125.702 16.6933 125.555 17.4133 125.262 18.64C124.995 19.6267 124.782 20.52 124.622 21.32C124.408 22.4133 124.222 23.4667 124.062 24.48C123.902 25.4667 123.822 26.28 123.822 26.92C123.822 27.9333 124.102 28.44 124.662 28.44C125.062 28.44 125.555 28.04 126.142 27.24C126.755 26.44 127.395 25.2267 128.062 23.6C128.755 21.9733 129.422 19.9733 130.062 17.6C130.275 16.8 130.595 16.2267 131.022 15.88C131.475 15.5333 132.142 15.36 133.022 15.36ZM121.982 48.32C122.648 48.32 123.395 47.5467 124.222 46C125.048 44.4533 125.875 41.88 126.702 38.28C124.648 40.0133 123.155 41.5867 122.222 43C121.315 44.44 120.862 45.6933 120.862 46.76C120.862 47.2133 120.942 47.5867 121.102 47.88C121.288 48.1733 121.582 48.32 121.982 48.32Z" fill="white"/>
</svg>
